<svg width="220" height="155" viewBox="0 0 220 155" fill="none" xmlns="http://www.w3.org/2000/svg">
<path d="M135.404 81.0192C138.865 51.9423 126.75 33.4231 119.827 28.2308C119.827 28.2308 129.511 25.9817 136.269 25.6346C142.327 25.3236 147.519 24.7692 153.577 26.5C159.635 28.2308 165.692 36.0192 169.154 57.6538C188.192 53.3269 202.038 52.4615 208.096 56.7885C202.038 66.3077 170.885 81.0192 135.404 81.0192Z" fill="#838383"/>
<path fill-rule="evenodd" clip-rule="evenodd" d="M122.423 110.442C125.019 107.558 130.731 100.058 132.808 93.1346C171.848 76.7377 174.959 90.634 177.737 103.042C178.038 104.386 178.335 105.712 178.673 106.981C171.173 113.615 151.5 123.423 132.808 109.577L122.423 110.442ZM138.865 102.654L164.827 94.8654C166.269 98.9039 166.385 107.5 155.308 109.577C144.231 111.654 139.731 105.827 138.865 102.654Z" fill="#838383"/>
<path fill-rule="evenodd" clip-rule="evenodd" d="M70 12C37.4025 12 11 38.4025 11 71C11 97.1075 27.8887 119.159 51.3412 126.976C54.2912 127.493 55.3975 125.723 55.3975 124.174C55.3975 122.773 55.3238 118.126 55.3238 113.185C40.5 115.914 36.665 109.571 35.485 106.253C34.8212 104.556 31.945 99.32 29.4375 97.9188C27.3725 96.8125 24.4225 94.0838 29.3637 94.01C34.01 93.9363 37.3287 98.2875 38.435 100.058C43.745 108.981 52.2262 106.474 55.6187 104.925C56.135 101.09 57.6837 98.5088 59.38 97.0338C46.2525 95.5588 32.535 90.47 32.535 67.9025C32.535 61.4863 34.8212 56.1763 38.5825 52.0463C37.9925 50.5713 35.9275 44.5238 39.1725 36.4113C39.1725 36.4113 44.1137 34.8625 55.3975 42.4588C60.1175 41.1313 65.1325 40.4675 70.1475 40.4675C75.1625 40.4675 80.1775 41.1313 84.8975 42.4588C96.1812 34.7888 101.122 36.4113 101.122 36.4113C104.367 44.5238 102.303 50.5713 101.713 52.0463C105.474 56.1763 107.76 61.4125 107.76 67.9025C107.76 90.5438 93.9687 95.5588 80.8412 97.0338C82.98 98.8775 84.8237 102.418 84.8237 107.949C84.8237 115.84 84.75 122.183 84.75 124.174C84.75 125.723 85.8562 127.566 88.8062 126.976C100.519 123.022 110.696 115.494 117.906 105.453C125.117 95.4115 128.996 83.3619 129 71C129 38.4025 102.597 12 70 12Z" fill="#838383"/>
</svg>
